<svg id="Layer_1" data-name="Layer 1" xmlns="http://www.w3.org/2000/svg" viewBox="0 0 284.73 111.01"><polygon points="54.09 44 97.09 1 162.75 1 119.92 43.83 54.09 44" style="fill:#be1622;stroke:#1d1d1b;stroke-miterlimit:10;stroke-width:2px"/><polygon points="70.09 110 113.09 67 178.75 67 135.92 109.83 70.09 110" style="fill:#1d71b8;stroke:#1d1d1b;stroke-miterlimit:10;stroke-width:2px"/><polygon points="2.42 96.67 45.42 53.67 111.09 53.67 68.25 96.5 2.42 96.67" style="fill:#1d71b8;stroke:#1d1d1b;stroke-miterlimit:10;stroke-width:2px"/><path d="M149.55,39.13H152V56h8.07v2h-10.5Z" style="fill:#1d1d1b"/><path d="M165.82,52.06l-2,5.94h-2.52l6.41-18.87h2.94L177.13,58h-2.61l-2-5.94Zm6.18-1.9-1.84-5.43c-.42-1.23-.7-2.35-1-3.45h-.06c-.28,1.12-.59,2.27-1,3.42l-1.85,5.46Z" style="fill:#1d1d1b"/><path d="M179.9,58V39.13h2.66l6.05,9.55A54.06,54.06,0,0,1,192,54.81l.05,0c-.22-2.52-.28-4.82-.28-7.76V39.13h2.3V58H191.6l-6-9.58a61.91,61.91,0,0,1-3.53-6.3l-.08,0c.14,2.38.2,4.65.2,7.79V58Z" style="fill:#1d1d1b"/><path d="M198.32,39.38A35.55,35.55,0,0,1,203.5,39c3.5,0,6,.81,7.65,2.35a8.69,8.69,0,0,1,2.66,6.78,9.94,9.94,0,0,1-2.72,7.33c-1.76,1.77-4.68,2.72-8.34,2.72a39.33,39.33,0,0,1-4.43-.23Zm2.44,16.69a15.53,15.53,0,0,0,2.46.14c5.21,0,8-2.91,8-8,0-4.45-2.49-7.28-7.64-7.28a13.88,13.88,0,0,0-2.86.25Z" style="fill:#1d1d1b"/><path d="M232.88,49.71c-.14-2.63-.31-5.79-.28-8.15h-.09c-.64,2.22-1.43,4.57-2.38,7.17l-3.33,9.16H225l-3-9c-.9-2.66-1.65-5.1-2.18-7.34h-.06c-.06,2.36-.2,5.52-.36,8.35L218.79,58h-2.32l1.31-18.87h3.11l3.22,9.13c.79,2.32,1.43,4.39,1.91,6.35h.08c.48-1.9,1.15-4,2-6.35l3.36-9.13h3.11L235.73,58h-2.38Z" style="fill:#be1622"/><path d="M242.25,52.06l-2,5.94h-2.51l6.41-18.87h2.94L253.57,58H251l-2-5.94Zm6.19-1.9-1.85-5.43c-.42-1.23-.69-2.35-1-3.45h-.06c-.28,1.12-.59,2.27-.95,3.42l-1.85,5.46Z" style="fill:#be1622"/><path d="M256.34,39.38A25.48,25.48,0,0,1,261,39c2.61,0,4.29.47,5.46,1.54A4.68,4.68,0,0,1,268,44.11a5,5,0,0,1-3.56,4.82V49c1.46.51,2.33,1.85,2.77,3.81A30.61,30.61,0,0,0,268.63,58h-2.52a24.15,24.15,0,0,1-1.26-4.51c-.56-2.6-1.57-3.58-3.78-3.67h-2.3V58h-2.43Zm2.43,8.6h2.5c2.6,0,4.25-1.43,4.25-3.59,0-2.43-1.76-3.5-4.34-3.53a10.15,10.15,0,0,0-2.41.23Z" style="fill:#be1622"/><path d="M271.4,39.13h2.44v9.1h.08c.51-.73,1-1.4,1.49-2l5.76-7.08h3l-6.83,8L284.73,58h-2.88l-6.22-9.27-1.79,2.07V58H271.4Z" style="fill:#be1622"/></svg>