<?xml version="1.0" encoding="utf-8"?>
<!-- Generator: Adobe Illustrator 25.2.3, SVG Export Plug-In . SVG Version: 6.00 Build 0)  -->
<svg version="1.1" id="Layer_1" xmlns="http://www.w3.org/2000/svg" xmlns:xlink="http://www.w3.org/1999/xlink" x="0px" y="0px"
	 viewBox="0 0 627 418" enable-background="new 0 0 627 418" xml:space="preserve">
<g>
	<path fill="#FFFFFF" d="M58,411.5c-28.4,0-51.5-23.1-51.5-51.5V58C6.5,29.6,29.6,6.5,58,6.5H569c28.4,0,51.5,23.1,51.5,51.5V360
		c0,28.4-23.1,51.5-51.5,51.5H58z"/>
	<path fill="#808080" d="M569,13c24.8,0,45,20.2,45,45V360c0,24.8-20.2,45-45,45H58c-24.8,0-45-20.2-45-45V58c0-24.8,20.2-45,45-45
		H569 M569,0H58C25.9,0,0,25.9,0,58V360c0,32,25.9,58,58,58H569c32,0,58-25.9,58-58V58C627,25.9,601.1,0,569,0L569,0z"/>
</g>
<g>
	<path fill="#666666" d="M285.7,64.7c0-2.1-0.7-3.7-2.1-4.9c-1.4-1.2-3.2-1.8-5.5-1.8c-1.7,0-3.1-0.3-4.1-0.9
		c-1.1-0.6-1.6-1.4-1.6-2.3c0-1.1,0.5-2,1.5-2.7c1-0.7,2-1,3.2-1c0.6,0,2.6,0.3,6.1,0.9c3.5,0.6,5.8,0.9,6.9,0.9
		c1.5,0,3.5-0.2,6-0.7c2.5-0.5,4.3-0.7,5.4-0.7c3,0,4.5,1.2,4.5,3.6c0,1.9-1.5,2.9-4.5,2.9c-2.6,0-4.5,0.4-5.8,1.2
		c-1.2,0.8-2,1.8-2.3,2.9c-0.3,1.1-0.4,2.6-0.4,4.3v75.2c0,5,0.5,8.9,1.6,11.6c1.1,2.7,1.6,4.9,1.6,6.6c0,1.6-0.7,2.3-2,2.3
		c-1,0-1.7-0.2-2.2-0.6c-0.5-0.4-1.2-1.3-2.2-2.7L227,75.9c-0.7-0.9-1.3-1.3-1.8-1.3c-0.8,0-1.1,1-1.1,2.9v69.4c0,2.1,0.9,3.8,2.7,5
		c1.8,1.3,3.5,1.9,5.1,1.9c4,0,6,1.3,6,4c0,0.8-0.2,1.5-0.7,2c-0.5,0.5-1.5,0.8-3.2,0.8c-1.6,0-4-0.2-7.2-0.6
		c-3.2-0.4-5.3-0.6-6.2-0.6c-1.3,0-3.5,0.2-6.6,0.6c-3.1,0.4-5.1,0.6-5.9,0.6c-2.6,0-3.8-1.2-3.8-3.6c0-2,1.5-3,4.5-3
		c2.5,0,4.4-0.7,5.9-2.1c1.5-1.4,2.2-3.3,2.2-5.9V65.9c0-2.5-0.6-4.4-1.9-5.9c-1.3-1.5-2.8-2.2-4.7-2.2c-2.6,0-4.3-0.3-5.2-0.8
		c-0.9-0.6-1.3-1.4-1.3-2.6c0-2.1,1.3-3.1,3.8-3.1c0.4,0,1.6,0.1,3.4,0.4c1.8,0.3,3.3,0.4,4.5,0.4c0.9,0,2-0.1,3.2-0.4
		c1.2-0.3,2.3-0.4,3.1-0.4c1.4,0,3.2,1.2,5.4,3.5c2.1,2.4,9.4,11.9,21.9,28.5l33.3,44.4c0.6,0.8,1.1,1.1,1.6,1.1
		c1.1,0,1.7-1.4,1.7-4.1V64.7z"/>
	<path fill="#666666" d="M365.4,48.2c17.6,0,31.4,6,41.4,18.1c10,12,15.1,25.6,15.1,40.6c0,11.1-2.7,21.2-8.2,30.4
		s-12.5,15.7-21.3,19.4c-8.8,3.8-18.1,5.6-27.9,5.6c-16,0-29.3-5.6-40-16.7c-10.6-11.1-16-25.3-16-42.4c0-9,2.4-17.9,7.1-26.6
		c4.7-8.8,11.4-15.7,20-20.7C344.2,50.7,354.1,48.2,365.4,48.2z M364.9,155.1c9.5,0,17.3-2.1,23.6-6.3c6.3-4.2,10.8-9.3,13.5-15.4
		c2.7-6.1,4.1-14.2,4.1-24.4c0-17.5-3.7-30.9-11-40.2c-7.3-9.3-17.3-13.9-29.8-13.9c-12.9,0-23,4.8-30.3,14.3
		c-7.3,9.5-10.9,20.8-10.9,33.9C324.1,137.8,337.7,155.1,364.9,155.1z"/>
	<path fill="#666666" d="M190.8,235.5c2,0,3.2,0.3,3.6,0.8c0.5,0.5,0.8,1.6,1.1,3.3c0.3,1.7,0.5,3.3,0.8,4.8
		c0.3,1.5,0.4,2.8,0.4,3.7c0,3-1.2,4.5-3.7,4.5c-0.6,0-1.2-0.3-1.7-0.8c-0.5-0.5-1.2-1.9-2-4.3c-0.8-2.3-1.7-3.8-2.5-4.5
		s-1.7-1-2.8-1h-20.7c-3.6,0-5.9,0.5-7,1.5c-1.1,1-1.7,2.4-1.7,4.4v15.8c0,3.4,0.5,5.7,1.4,7.1c1,1.4,3.3,2.1,6.9,2.1h20.1
		c1.6,0,2.8-0.7,3.7-2c0.9-1.3,1.3-2.9,1.3-4.6c0-0.9,0.3-1.5,0.8-2c0.6-0.5,1.2-0.8,2-0.8c0.9,0,1.6,0.3,2.2,0.9
		c0.6,0.6,0.9,1.5,0.9,2.6c0,1.1-0.1,2.6-0.2,4.5s-0.2,3.6-0.2,4.8c0,1.9,0.1,3.9,0.4,6c0.3,2.1,0.4,3.4,0.4,3.8
		c0,1.1-0.3,2-0.9,2.7c-0.6,0.7-1.3,1-2.1,1c-0.9,0-1.7-0.4-2.3-1.3c-0.6-0.9-0.9-2.1-0.9-3.6c0-3.6-2.2-5.4-6.5-5.4h-20
		c-2.5,0-4.2,0.4-5.1,1.1c-0.9,0.8-1.3,1.9-1.3,3.3v44.8c0,2,0.5,3.7,1.5,5.1s3,2.7,6,3.5c3,0.9,4.9,1.7,5.5,2.4
		c0.6,0.7,0.9,1.6,0.9,2.6c0,1.7-1,2.6-3.1,2.6c-1,0-2.9-0.4-5.7-1.2c-2.8-0.8-5.6-1.2-8.3-1.2c-4.8,0-8.7,0.4-11.7,1.2
		c-3.1,0.8-5,1.2-5.9,1.2c-3.1,0-4.7-1.3-4.7-3.9c0-0.7,0.3-1.2,0.8-1.8s2.1-1.1,4.8-1.7c2.7-0.6,4.4-1.5,5.3-2.7
		c0.9-1.2,1.3-2.5,1.3-4.1v-68.7c0-7-0.2-11.8-0.5-14.4c-0.3-2.6-1-4.3-2-5c-1-0.7-2.8-1-5.5-1c-1.8,0-3.2-0.3-4.2-1
		c-1-0.6-1.5-1.4-1.5-2.4c0-0.9,0.4-1.7,1.3-2.4c0.9-0.7,1.9-1,3.2-1H190.8z"/>
	<path fill="#666666" d="M255,233.1c17.6,0,31.4,6,41.4,18.1c10,12,15.1,25.6,15.1,40.6c0,11.1-2.7,21.2-8.2,30.4
		c-5.4,9.2-12.5,15.7-21.3,19.4c-8.8,3.8-18.1,5.6-27.9,5.6c-16,0-29.3-5.6-40-16.7c-10.6-11.1-16-25.3-16-42.4
		c0-9,2.4-17.9,7.1-26.6c4.7-8.8,11.4-15.7,20-20.7C233.9,235.6,243.8,233.1,255,233.1z M254.6,340.1c9.5,0,17.3-2.1,23.6-6.3
		c6.3-4.2,10.8-9.3,13.5-15.4c2.7-6.1,4.1-14.2,4.1-24.4c0-17.5-3.7-30.9-11-40.2s-17.3-13.9-29.8-13.9c-12.9,0-23,4.8-30.3,14.3
		c-7.3,9.5-10.9,20.8-10.9,33.9C213.8,322.7,227.4,340.1,254.6,340.1z"/>
	<path fill="#666666" d="M377.3,235.3c1.7,0,3.1,1.8,4.1,5.3c1.1,3.6,1.6,6.9,1.6,9.9c0,3.1-1,4.6-3,4.6c-0.7,0-1.4-0.2-1.9-0.7
		c-0.6-0.4-1.4-2-2.4-4.8c-1-2.7-2.6-4.6-4.6-5.5c-2-1-4.2-1.5-6.6-1.5c-3.4,0-5.9,0.8-7.4,2.4c-1.5,1.6-2.3,4.1-2.3,7.7v79.7
		c0,1.2,0.4,2.3,1.1,3.2c0.7,0.9,2.2,1.7,4.6,2.4c2.3,0.7,3.7,1.3,4.2,1.8c0.5,0.5,0.8,1.1,0.8,1.8c0,2.6-1.4,4-4.1,4
		c-1.5,0-3.7-0.2-6.6-0.7c-2.9-0.5-5.1-0.7-6.5-0.7c-1.3,0-3.2,0.2-5.7,0.6c-2.5,0.4-4.4,0.6-5.7,0.6c-1.6,0-2.9-0.4-4-1.1
		c-1.1-0.7-1.7-1.7-1.7-3c0-0.6,0.2-1.2,0.6-1.6c0.4-0.5,1.7-1.1,4-1.7c2.3-0.7,3.8-1.7,4.6-3.1c0.8-1.4,1.2-3,1.2-4.7v-80.5
		c0-4.9-3.3-7.3-9.8-7.3c-4.3,0-7.3,1-9.1,2.9c-1.1,1.1-1.9,2.8-2.4,5.1c-0.5,2.3-1,3.7-1.6,4.1c-0.5,0.4-1.2,0.6-1.9,0.6
		c-0.8,0-1.6-0.2-2.3-0.6c-0.7-0.4-1.1-1-1.1-1.6c0-5.5,0.5-9.7,1.4-12.8s2.3-4.6,4.1-4.6H377.3z"/>
	<path fill="#666666" d="M441.8,233.1c17.6,0,31.4,6,41.4,18.1c10,12,15.1,25.6,15.1,40.6c0,11.1-2.7,21.2-8.2,30.4
		s-12.5,15.7-21.3,19.4c-8.8,3.8-18.1,5.6-27.9,5.6c-16,0-29.3-5.6-40-16.7c-10.6-11.1-16-25.3-16-42.4c0-9,2.4-17.9,7.1-26.6
		c4.7-8.8,11.4-15.7,20-20.7C420.7,235.6,430.6,233.1,441.8,233.1z M441.4,340.1c9.5,0,17.3-2.1,23.6-6.3
		c6.3-4.2,10.8-9.3,13.5-15.4c2.7-6.1,4.1-14.2,4.1-24.4c0-17.5-3.7-30.9-11-40.2c-7.3-9.3-17.3-13.9-29.8-13.9
		c-12.9,0-23,4.8-30.3,14.3c-7.3,9.5-10.9,20.8-10.9,33.9C400.6,322.7,414.2,340.1,441.4,340.1z"/>
</g>
<g>
</g>
<g>
</g>
<g>
</g>
<g>
</g>
<g>
</g>
<g>
</g>
<g>
</g>
<g>
</g>
<g>
</g>
<g>
</g>
<g>
</g>
<g>
</g>
<g>
</g>
<g>
</g>
<g>
</g>
</svg>
