<?xml version="1.0" encoding="iso-8859-1"?>
<!-- Generator: Adobe Illustrator 23.0.2, SVG Export Plug-In . SVG Version: 6.00 Build 0)  -->
<svg version="1.1" id="Layer_1" xmlns="http://www.w3.org/2000/svg" xmlns:xlink="http://www.w3.org/1999/xlink" x="0px" y="0px"
	 viewBox="0 0 28.5 25" style="enable-background:new 0 0 28.5 25;" xml:space="preserve">
<g id="sharing-content_2_">
	<path style="opacity:0.75;" d="M8,2c0-0.551,0.449-1,1-1h15c0.551,0,1,0.449,1,1v13.654c0.326-0.098,0.66-0.154,1-0.154V2
		c0-1.104-0.896-2-2-2H9C7.895,0,7,0.896,7,2v9h1V2z"/>
	<polygon points="0,11 0,25 4,25 4,22.81 4,11 	"/>
	<path d="M25.209,16.629L17,19.365L11,17h5.5c1.381,0,2.5-1.119,2.5-2.5S17.881,12,16.5,12H5v10l11.209,2.373
		C16.466,24.457,16.732,24.5,17,24.5c0.268,0,0.534-0.043,0.791-0.127l9-3c1.31-0.438,2.018-1.853,1.58-3.162
		C27.935,16.9,26.518,16.191,25.209,16.629z"/>
</g>
</svg>
